<svg width="100" height="100" viewBox="0 0 100 100" fill="none" xmlns="http://www.w3.org/2000/svg">
<path d="M25.0032 0C11.1766 0 0.00784947 3.58906 0.00784947 8.82031V96.6477C-0.0202755 98.4695 1.4266 99.9719 3.23441 100H50V99.9859H96.6407C98.4625 100.014 99.9649 98.5672 99.9922 96.7594V35.693C99.9962 35.5848 99.9783 35.4769 99.9396 35.3757C99.9009 35.2746 99.8422 35.1823 99.767 35.1044C99.6918 35.0265 99.6017 34.9646 99.502 34.9223C99.4022 34.8801 99.295 34.8584 99.1868 34.8586C98.9641 34.8586 98.7414 34.9422 98.5883 35.1086L74.9969 58.6875V35.6937C75.001 35.5853 74.9832 35.4772 74.9444 35.3759C74.9057 35.2746 74.8468 35.1821 74.7715 35.1041C74.6961 35.0261 74.6057 34.9641 74.5058 34.9219C74.4058 34.8797 74.2984 34.8582 74.1899 34.8586C73.9672 34.8586 73.7446 34.9422 73.5914 35.1086L50.0547 58.6328L50 58.6875V8.82031C50 4.04844 38.8297 0 25.0032 0ZM25.0032 2.58828C35.2969 2.58828 44.1164 5.10469 44.1164 8.28984C44.1164 11.5313 35.5336 14.1742 24.9485 14.1742C14.3625 14.1742 5.76644 11.643 5.76644 8.28984C5.76644 4.93828 14.7094 2.58828 25.0032 2.58828ZM49.6641 10.2969C47.7836 14.793 37.4813 18.1109 25.0032 18.1109C14.2149 18.1109 5.07191 15.6328 1.56254 12.0617C5.09066 15.5563 14.2407 17.8742 25.0032 17.8742C37.436 17.8742 47.7172 14.5898 49.6641 10.2961V10.2969ZM28.3008 73.3336H38.3578C39.2618 73.3336 39.9985 74.0711 39.9985 74.9758V85.0328C39.9979 85.4678 39.8248 85.8848 39.5173 86.1925C39.2098 86.5002 38.7929 86.6734 38.3578 86.6742H28.3008C27.8657 86.6734 27.4486 86.5002 27.1408 86.1926C26.833 85.885 26.6597 85.468 26.6586 85.0328V74.9758C26.6446 74.0711 27.3821 73.3336 28.3008 73.3336ZM51.4743 73.3336H61.5313C62.4352 73.3336 63.1727 74.0711 63.1727 74.9758V85.0328C63.1717 85.4678 62.9984 85.8847 62.6908 86.1923C62.3832 86.4999 61.9663 86.6732 61.5313 86.6742H51.4743C51.1653 86.6728 50.8629 86.5841 50.6021 86.4183C50.3413 86.2526 50.1326 86.0166 50 85.7375V74.2531C50.1343 73.9766 50.3439 73.7437 50.6047 73.581C50.8655 73.4183 51.1669 73.3326 51.4743 73.3336ZM74.6493 73.3336H84.7063C85.6102 73.3336 86.3477 74.0711 86.3477 74.9758V85.0328C86.3467 85.4678 86.1734 85.8847 85.8658 86.1923C85.5582 86.4999 85.1413 86.6732 84.7063 86.6742H74.6485C74.2133 86.6734 73.7962 86.5002 73.4885 86.1926C73.1807 85.885 73.0073 85.468 73.0063 85.0328V74.9758C72.9922 74.0711 73.7313 73.3336 74.6493 73.3336Z" fill="black"/>
</svg>
