<svg width="100" height="100" viewBox="0 0 100 100" fill="none" xmlns="http://www.w3.org/2000/svg">
<path d="M1.43123 0.781247C1.1703 0.779685 1.00702 0.923435 0.927328 1.11875C0.847641 1.31406 0.866391 1.52968 1.05467 1.71015L29.2648 29.2297C29.7695 28.832 30.4086 28.6148 31.1305 28.6C33.4164 28.5531 36.543 30.2531 39.968 33.7422C43.0203 36.8516 46.2765 41.4797 49.2609 47.6094C49.5013 47.5297 49.7523 47.4871 50.0055 47.4828C50.232 47.4828 50.4461 47.5219 50.6539 47.5789C55.1226 37.7805 56.918 30.3164 56.9117 24.7453C56.9055 18.7859 54.9586 14.9117 52.2961 12.2844L52.2273 12.218C47.2672 7.37422 39.239 4.55781 30.107 2.94375C20.9765 1.32968 10.7555 0.909372 1.43123 0.781247ZM98.7359 0.896872C98.6541 0.886246 98.571 0.895703 98.4937 0.924424C98.4163 0.953146 98.3472 1.00027 98.2922 1.06172L70.7836 29.2617C71.4609 30.1156 71.5758 31.3594 71.1758 32.7742C70.7351 34.3312 69.6914 36.1445 68.0195 38.1016C64.9867 41.6531 59.7898 45.6531 52.3961 49.2555C52.4703 49.4906 52.5211 49.7359 52.5211 49.9953C52.5211 50.2234 52.482 50.4398 52.4242 50.65C62.2289 55.1219 69.6969 56.9187 75.2695 56.9125C81.2039 56.9047 85.068 54.9719 87.6945 52.3266L87.7844 52.2352C92.6273 47.275 95.4453 39.2461 97.0601 30.1148C98.6742 20.9844 99.0945 10.7633 99.2219 1.43906C99.2268 1.33042 99.1968 1.22306 99.1362 1.13276C99.0756 1.04247 98.9876 0.974024 98.8851 0.937497C98.837 0.918036 98.7866 0.904651 98.7351 0.897654L98.7359 0.896872ZM55.4867 15.3945C56.807 17.8367 57.6898 20.8477 57.6945 24.7461C57.7015 30.4727 55.8609 38.0352 51.368 47.8898C51.6367 48.0641 51.8695 48.2875 52.0555 48.5477C59.3664 44.9836 64.4875 41.0367 67.4265 37.5945C69.0469 35.6977 70.0305 33.9562 70.425 32.5609C70.7687 31.3445 70.6734 30.432 70.2375 29.8219L70.157 29.9039L69.8961 29.4695C69.8777 29.4384 69.8551 29.41 69.8289 29.3852L69.8258 29.382L55.4867 15.3945ZM31.1476 29.3805C30.6008 29.3922 30.1687 29.5289 29.825 29.7742L29.893 29.8414L29.4664 30.1039C29.4456 30.118 29.4255 30.1344 29.4062 30.1531L15.3805 44.5297C17.8242 43.2055 20.8375 42.3195 24.7398 42.3156C30.4687 42.3086 38.0344 44.1508 47.8961 48.6461C48.0703 48.3742 48.293 48.1383 48.5562 47.9508C45.6047 41.8883 42.3922 37.3242 39.4133 34.2898C36.0695 30.8836 33.0117 29.3422 31.1476 29.3805ZM24.7414 43.0969C18.7375 43.1047 14.8453 45.0789 12.218 47.7727C7.37498 52.7336 4.55623 60.7602 2.94217 69.8906C1.32811 79.0211 0.907797 89.2445 0.779672 98.5687C0.774296 98.6775 0.80405 98.7852 0.864542 98.8758C0.925033 98.9664 1.01306 99.0351 1.11561 99.0719C1.31092 99.1516 1.52811 99.1344 1.70936 98.9453L29.2187 70.7453C28.543 69.8914 28.4297 68.6484 28.8297 67.2344C29.2695 65.6781 30.314 63.8625 31.9851 61.9062C35.0195 58.3516 40.2195 54.35 47.6226 50.7461C47.5418 50.5038 47.4986 50.2506 47.4945 49.9953C47.4945 49.7742 47.5336 49.5633 47.5875 49.3586C37.7828 44.8867 30.3133 43.0906 24.7414 43.0969ZM50.007 48.2641C49.7794 48.2634 49.554 48.3078 49.3436 48.3947C49.1332 48.4815 48.9421 48.6091 48.7812 48.77C48.6203 48.931 48.4928 49.1222 48.4061 49.3326C48.3193 49.543 48.275 49.7685 48.2758 49.9961C48.2749 50.2238 48.3192 50.4494 48.4059 50.66C48.4927 50.8706 48.6202 51.0619 48.7812 51.2229C48.9422 51.384 49.1334 51.5116 49.3439 51.5985C49.5545 51.6853 49.7801 51.7296 50.0078 51.7289C50.2357 51.7298 50.4614 51.6857 50.6721 51.5989C50.8828 51.5122 51.0743 51.3846 51.2354 51.2235C51.3966 51.0624 51.5243 50.871 51.6111 50.6604C51.6979 50.4497 51.7422 50.2239 51.7414 49.9961C51.7421 49.7682 51.6977 49.5425 51.6108 49.3319C51.5239 49.1213 51.3961 48.9299 51.2349 48.7689C51.0736 48.6079 50.8821 48.4804 50.6714 48.3938C50.4607 48.3071 50.2349 48.263 50.007 48.2641ZM52.1133 51.3617C51.9406 51.6273 51.718 51.8562 51.4601 52.0406C55.0258 59.3594 58.9758 64.4844 62.4187 67.4234C64.3156 69.0437 66.0555 70.0273 67.4515 70.4227C68.6633 70.7648 69.575 70.6719 70.1859 70.2391L70.1094 70.1641L70.5367 69.9023C70.5663 69.8841 70.5934 69.8621 70.6172 69.8367L70.6203 69.832L84.614 55.4859C82.1734 56.8055 79.1648 57.6891 75.2703 57.6937C69.5406 57.7008 61.9742 55.8578 52.1125 51.3609L52.1133 51.3617ZM47.968 51.4516C40.6461 55.018 35.5211 58.9703 32.5797 62.4148C30.9594 64.3117 29.9758 66.0516 29.5812 67.4469C29.2375 68.6617 29.3328 69.5734 29.7672 70.1844L29.8422 70.1078L30.1047 70.5352C30.1219 70.5643 30.1432 70.5909 30.1687 70.6148L30.1726 70.618L44.5203 84.6133C43.2 82.1719 42.3156 79.1602 42.3109 75.2617C42.3047 69.5328 44.1469 61.9648 48.6453 52.1023C48.3804 51.9299 48.1505 51.7096 47.968 51.4516ZM50.7523 52.3836C50.512 52.4632 50.261 52.5059 50.0078 52.5102C49.7812 52.5102 49.5656 52.4695 49.3562 52.4125C44.882 62.2195 43.0859 69.6891 43.0922 75.2625C43.1 81.2328 45.0539 85.1109 47.7234 87.7391L47.7695 87.7828C52.7297 92.6258 60.7578 95.443 69.8898 97.0562C79.0195 98.6711 89.2406 99.0914 98.564 99.2195C98.6721 99.2239 98.7787 99.1936 98.8683 99.1332C98.958 99.0728 99.026 98.9853 99.0625 98.8836C99.1078 98.7854 99.1205 98.6753 99.0989 98.5693C99.0772 98.4634 99.0223 98.3671 98.9422 98.2945L70.7469 70.7859C69.893 71.4602 68.6515 71.575 67.239 71.175C65.682 70.7351 63.8687 69.6891 61.9117 68.018C58.3586 64.9836 54.3562 59.7852 50.7523 52.3836Z" fill="black"/>
</svg>
