<svg width="100" height="62" viewBox="0 0 100 62" fill="none" xmlns="http://www.w3.org/2000/svg">
<path d="M28.1875 22.7187C28.0782 26.25 29.8438 27.8281 29.8907 28.8125C29.875 29.0156 29.7969 29.2031 29.6875 29.375C29.5782 29.5469 29.4219 29.6875 29.25 29.7812L27.25 31.1875C26.9844 31.375 26.6875 31.4687 26.375 31.4844C26.3125 31.4844 25.0938 31.7656 23.1719 27.4844C22 28.9531 20.5157 30.125 18.8125 30.9219C17.1094 31.7187 15.2657 32.125 13.3907 32.0937C10.8438 32.2344 3.95317 30.6562 4.31254 23.3125C4.06254 17.3281 9.64067 13.6094 15.3907 13.9375C16.5 13.9375 18.7657 14 22.7344 14.9219V12.4844C23.1563 8.34374 20.4375 5.14062 15.7344 5.62499C15.3594 5.62499 12.7032 5.54687 8.57817 7.20312C7.42192 7.73437 7.28129 7.64062 6.89067 7.64062C5.73442 7.64062 6.20317 4.28124 6.43754 3.85937C7.25004 2.85937 12.0469 0.984369 16.7344 1.01562C19.875 0.734369 23 1.70312 25.4375 3.71874C26.4219 4.82812 27.1875 6.12499 27.6563 7.53124C28.125 8.93749 28.3125 10.4219 28.2032 11.9062V22.7344L28.1875 22.7187ZM14.6875 27.7812C19.75 27.7031 21.9063 24.6562 22.3907 23.0156C22.7813 21.4375 22.7188 20.4531 22.7188 18.7344C21.2032 18.375 19.0313 17.9687 16.5313 17.9687C14.1563 17.7969 9.84379 18.8437 10.0157 23.0156C9.82817 25.6406 11.75 27.9219 14.7032 27.7812H14.6875ZM41.3907 31.3906C40.1563 31.5 39.5938 30.625 39.4063 29.7656L31.625 4.03124C31.4688 3.59374 31.375 3.15624 31.3282 2.68749C31.2969 2.49999 31.3438 2.31249 31.4532 2.15624C31.5625 1.99999 31.7344 1.90624 31.9219 1.87499H35.3907C36.7657 1.73437 37.2032 2.81249 37.3594 3.49999L42.9532 25.5L48.1407 3.49999C48.2188 2.99999 48.5938 1.76562 50.1407 1.90624H52.8282C53.1719 1.87499 54.5625 1.82812 54.8125 3.53124L60.0157 25.7969L65.7813 3.51562C65.8594 3.17187 66.2032 1.73437 67.7657 1.89062H70.8438C70.9844 1.87499 71.8125 1.76562 71.6719 3.23437C71.6094 3.51562 72.2032 1.56249 63.4219 29.7812C63.25 30.6406 62.6719 31.5156 61.4375 31.4062H58.5157C56.8125 31.5937 56.5625 29.8906 56.5313 29.7344L51.3438 8.31249L46.2188 29.7187C46.1875 29.8906 45.9532 31.5781 44.2344 31.3906H41.375H41.3907ZM84.125 32.2656C83.2032 32.2656 78.8282 32.2187 75.1563 30.3437C74.7969 30.1875 74.4844 29.9375 74.2657 29.5937C74.0469 29.25 73.9375 28.875 73.9375 28.4844V26.8125C73.9375 25.4844 74.9063 25.7344 75.3125 25.8906C76.875 26.5312 77.8907 27 79.8125 27.3906C85.5469 28.5625 88.0625 27.0312 88.6719 26.6875C90.7344 25.4687 90.8907 22.6719 89.5 21.2344C87.8594 19.8594 87.0782 19.8125 81.2032 17.9531C80.4844 17.75 74.375 15.8281 74.3594 9.76562C74.2657 5.35937 78.2657 0.984369 85.2188 1.01562C87.2032 1.01562 92.4688 1.65624 93.9063 3.45312C94.125 3.78124 94.2188 4.17187 94.2032 4.54687V6.12499C94.2032 6.81249 93.9532 7.17187 93.4375 7.17187C92.2344 7.03124 90.0938 5.42187 85.75 5.48437C84.6719 5.42187 79.5157 5.62499 79.75 9.39062C79.6875 12.3594 83.9063 13.4687 84.3907 13.5937C90.0938 15.3125 91.9844 15.5937 94.25 18.2187C96.9219 21.6875 95.4844 25.7656 94.9219 26.875C91.9375 32.7344 84.2344 32.25 84.0938 32.25L84.125 32.2656ZM90.4063 48.6562C79.4688 56.7344 63.5782 61.0312 50.0157 61.0312C31.7188 61.1562 14.0313 54.4219 0.437543 42.1719C-0.578082 41.25 0.312543 39.9844 1.56254 40.6875C16.6407 49.3125 33.7032 53.8437 51.0782 53.8281C64.0469 53.7656 76.875 51.125 88.8282 46.0937C90.6719 45.3125 92.2344 47.3125 90.4063 48.6562ZM94.9688 43.4531C93.5625 41.6562 85.7032 42.6094 82.1875 43.0312C81.125 43.1562 80.9532 42.2344 81.9063 41.5469C88.1719 37.1406 98.4532 38.4062 99.625 39.8906C100.797 41.375 99.2969 51.6719 93.4375 56.5937C92.5313 57.3594 91.6719 56.9531 92.0782 55.9531C93.3907 52.625 96.3594 45.25 94.9532 43.4531H94.9688Z" fill="black"/>
</svg>
