<svg width="94" height="88" viewBox="0 0 94 88" fill="none" xmlns="http://www.w3.org/2000/svg">
<path fill-rule="evenodd" clip-rule="evenodd" d="M93.0625 79.5L68.0625 4.5C67.6276 3.20637 66.7812 2.09064 65.6527 1.32321C64.5241 0.55579 63.1754 0.178863 61.8125 0.250001H32.1875C30.8772 0.246618 29.599 0.655119 28.5335 1.41776C27.4681 2.18041 26.6692 3.25862 26.25 4.5L0.937457 79.5C0.609214 80.4671 0.522954 81.4999 0.686222 82.508C0.84949 83.5161 1.25731 84.4689 1.87401 85.2829C2.49071 86.097 3.29749 86.7475 4.22378 87.1776C5.15006 87.6076 6.16763 87.8042 7.18746 87.75H25.5C26.7995 87.7403 28.0638 87.3258 29.1168 86.5641C30.1698 85.8023 30.9591 84.7313 31.375 83.5L35.1875 72.375L53.9375 86.5625C55.0271 87.3516 56.3422 87.7681 57.6875 87.75H86.9375C87.947 87.7831 88.9494 87.571 89.8591 87.132C90.7687 86.6929 91.5583 86.04 92.1604 85.229C92.7625 84.418 93.1591 83.4732 93.3162 82.4755C93.4733 81.4777 93.3862 80.4567 93.0625 79.5ZM57.9375 83.625C57.4832 83.6254 57.0423 83.4711 56.6875 83.1875L21.375 57L20.8125 56.5625H39.5625L40.0625 55.25L46.3125 39.4375L60.3125 80.875C60.425 81.2224 60.446 81.593 60.3736 81.951C60.3012 82.3089 60.1377 82.6421 59.899 82.9185C59.6603 83.1949 59.3544 83.4051 59.0108 83.5289C58.6673 83.6526 58.2976 83.6857 57.9375 83.625ZM87.125 83.625H63.875C64.3418 82.2896 64.3418 80.8354 63.875 79.5L38.5625 4.5H61.8125C62.2538 4.50223 62.6836 4.64184 63.042 4.89944C63.4004 5.15704 63.6697 5.51986 63.8125 5.9375L89.125 80.9375C89.2105 81.2489 89.224 81.5757 89.1643 81.8931C89.1047 82.2105 88.9735 82.5101 88.7807 82.7692C88.5879 83.0283 88.3385 83.24 88.0516 83.3883C87.7647 83.5366 87.4478 83.6175 87.125 83.625Z" fill="black"/>
</svg>
