<svg width="96" height="96" viewBox="0 0 96 96" fill="none" xmlns="http://www.w3.org/2000/svg">
<path d="M40.9333 3.69333C42.8083 1.82066 45.3499 0.768799 48 0.768799C50.65 0.768799 53.1916 1.82066 55.0666 3.69333L92.3066 40.9267C93.2359 41.8553 93.973 42.958 94.476 44.1717C94.9789 45.3854 95.2378 46.6862 95.2378 48C95.2378 49.3138 94.9789 50.6146 94.476 51.8283C93.973 53.042 93.2359 54.1447 92.3066 55.0733L55.0733 92.3067C54.1446 93.2359 53.0419 93.9731 51.8283 94.476C50.6146 94.979 49.3137 95.2379 48 95.2379C46.6862 95.2379 45.3853 94.979 44.1716 94.476C42.958 93.9731 41.8553 93.2359 40.9266 92.3067L3.69328 55.0733C2.76402 54.1447 2.02685 53.042 1.5239 51.8283C1.02096 50.6146 0.762085 49.3138 0.762085 48C0.762085 46.6862 1.02096 45.3854 1.5239 44.1717C2.02685 42.958 2.76402 41.8553 3.69328 40.9267L29.9533 14.6667L38.9733 23.6867C38.3686 24.9523 38.037 26.331 38 27.7331C37.9629 29.1353 38.2212 30.5295 38.7582 31.8254C39.2951 33.1212 40.0986 34.2895 41.1165 35.2545C42.1345 36.2195 43.344 36.9596 44.6666 37.4267V58.5667C42.4426 59.353 40.5681 60.9002 39.3745 62.9349C38.1809 64.9696 37.7451 67.3608 38.144 69.6858C38.5429 72.0108 39.7509 74.1199 41.5544 75.6403C43.358 77.1608 45.641 77.9947 48 77.9947C50.3589 77.9947 52.6419 77.1608 54.4455 75.6403C56.249 74.1199 57.457 72.0108 57.8559 69.6858C58.2548 67.3608 57.819 64.9696 56.6254 62.9349C55.4318 60.9002 53.5573 59.353 51.3333 58.5667V37.4333C51.6711 37.3133 51.9977 37.1778 52.3133 37.0267L58.98 43.6933C57.9632 45.822 57.7317 48.2415 58.3264 50.5243C58.921 52.8072 60.3036 54.8063 62.2297 56.1683C64.1558 57.5303 66.5014 58.1675 68.8518 57.9674C71.2023 57.7673 73.4064 56.7426 75.0745 55.0745C76.7425 53.4065 77.7672 51.2024 77.9674 48.8519C78.1675 46.5014 77.5302 44.1558 76.1682 42.2297C74.8062 40.3037 72.8071 38.9211 70.5243 38.3264C68.2415 37.7317 65.8219 37.9632 63.6933 38.98L57.0266 32.3133C57.9178 30.4473 58.2086 28.3508 57.8589 26.3127C57.5092 24.2745 56.5363 22.3949 55.074 20.9326C53.6117 19.4704 51.7321 18.4974 49.6939 18.1477C47.6558 17.798 45.5593 18.0888 43.6933 18.98L34.6666 9.94667L40.9333 3.69333Z" fill="black"/>
</svg>
