<svg width="84" height="82" viewBox="0 0 84 82" fill="none" xmlns="http://www.w3.org/2000/svg">
<path d="M42 0.333313C36.5282 0.333313 31.1101 1.41105 26.0548 3.505C20.9996 5.59895 16.4063 8.66809 12.5372 12.5372C4.72318 20.3512 0.333313 30.9493 0.333313 42C0.333313 60.4166 12.2916 76.0416 28.8333 81.5833C30.9166 81.9166 31.5833 80.625 31.5833 79.5V72.4583C20.0416 74.9583 17.5833 66.875 17.5833 66.875C15.6666 62.0416 12.9583 60.75 12.9583 60.75C9.16665 58.1666 13.25 58.25 13.25 58.25C17.4166 58.5416 19.625 62.5416 19.625 62.5416C23.25 68.875 29.375 67 31.75 66C32.125 63.2916 33.2083 61.4583 34.375 60.4166C25.125 59.375 15.4166 55.7916 15.4166 39.9166C15.4166 35.2916 17 31.5833 19.7083 28.625C19.2916 27.5833 17.8333 23.25 20.125 17.625C20.125 17.625 23.625 16.5 31.5833 21.875C34.875 20.9583 38.4583 20.5 42 20.5C45.5416 20.5 49.125 20.9583 52.4166 21.875C60.375 16.5 63.875 17.625 63.875 17.625C66.1666 23.25 64.7083 27.5833 64.2917 28.625C67 31.5833 68.5833 35.2916 68.5833 39.9166C68.5833 55.8333 58.8333 59.3333 49.5417 60.375C51.0417 61.6666 52.4166 64.2083 52.4166 68.0833V79.5C52.4166 80.625 53.0833 81.9583 55.2083 81.5833C71.75 76 83.6667 60.4166 83.6667 42C83.6667 36.5282 82.5889 31.1101 80.495 26.0548C78.401 20.9996 75.3319 16.4063 71.4628 12.5372C67.5937 8.66809 63.0004 5.59895 57.9451 3.505C52.8899 1.41105 47.4717 0.333313 42 0.333313Z" fill="black"/>
</svg>
