<svg width="84" height="68" viewBox="0 0 84 68" fill="none" xmlns="http://www.w3.org/2000/svg">
<path d="M75.3333 59H67V22.5417L42 38.1667L17 22.5417V59H8.66665V9.00002H13.6666L42 26.7083L70.3333 9.00002H75.3333M75.3333 0.666687H8.66665C4.04165 0.666687 0.333313 4.37502 0.333313 9.00002V59C0.333313 61.2101 1.21129 63.3298 2.77409 64.8925C4.33689 66.4554 6.45651 67.3333 8.66665 67.3333H75.3333C77.5434 67.3333 79.6631 66.4554 81.2259 64.8925C82.7887 63.3298 83.6666 61.2101 83.6666 59V9.00002C83.6666 6.78988 82.7887 4.67027 81.2259 3.10746C79.6631 1.54466 77.5434 0.666687 75.3333 0.666687Z" fill="black"/>
</svg>
