<svg width="100" height="76" viewBox="0 0 100 76" fill="none" xmlns="http://www.w3.org/2000/svg">
<path d="M50.4102 0.538269C45.6906 1.69452 44.3016 2.51796 42.7336 7.98905C44.7274 3.98124 46.2375 2.50624 50.4102 0.538269ZM62.5477 0.829676C59.4555 0.890614 56.1703 1.82108 52.3774 3.41717C50.2852 4.29764 48.7305 5.33983 47.3774 6.59139C46.0844 7.78671 44.9852 9.17264 43.7789 10.7797C43.0797 10.8297 42.4547 10.9281 41.8211 11.1812C41.1219 11.4609 40.4172 11.9133 39.5735 12.6578C38.9851 13.1766 38.4086 13.7088 37.8445 14.2539V14.2555C37.33 14.7557 36.8245 15.2652 36.3281 15.7836C32.3828 16.4164 29.1649 17.1156 26.286 18.2305C23.3414 19.3711 20.7453 20.9414 18.0789 23.3055C17.0287 24.2326 16.0713 25.2598 15.2203 26.3726C14.4223 27.425 13.7178 28.5452 13.1149 29.7203C12.5789 30.314 12.0422 30.9133 11.461 31.4375C10.8969 31.9445 10.2953 32.3726 9.62189 32.632C9.23126 32.7828 9.06876 32.8703 9.05158 32.864C9.03908 32.8578 9.00314 32.7195 8.9922 32.675C9.95158 31.7523 10.1086 30.4047 10.1977 29.0633C10.3238 29.2179 10.4399 29.3805 10.5453 29.55C10.6727 29.7476 10.8047 29.95 10.9617 30.1476L11.618 30.9758L11.8485 29.943C12.0422 29.0773 12.1867 27.9234 11.9617 26.9234C11.8156 26.2773 11.5086 25.7062 10.9875 25.2969C11.036 25.1719 11.0891 25.0297 11.1344 24.9156C11.2992 24.4937 11.468 24.0609 11.6117 23.6523L11.8977 22.8437L11.0508 22.9898C9.92345 23.1851 7.5008 24.5172 5.79533 26.2867C5.16251 26.9445 4.61798 27.6695 4.26017 28.4328C3.8883 29.2258 3.72111 30.057 3.86486 30.8875C3.98986 31.6117 4.35939 32.3203 5.01564 32.9906C5.13517 33.4734 5.24611 33.9062 5.36486 34.2844C5.5008 34.7172 5.64767 35.1023 5.83048 35.482C6.32658 36.5148 7.11798 37.1461 8.03361 37.4398C8.7758 37.6781 9.59845 37.6875 10.4031 37.5086C10.2331 38.4602 10.1287 39.4223 10.0906 40.3883C10.0406 41.7359 10.0891 43.2242 10.2375 44.9515C10.3083 45.7545 10.4204 46.5532 10.5735 47.3445L10.1242 48.5664L9.42658 50.4617L7.89376 51.9812L6.46173 53.3992C6.42267 53.4383 6.26173 53.5929 6.11564 53.7336C5.14923 54.6633 4.95783 54.8492 5.23283 56.4859C5.40887 57.5334 5.75065 58.546 6.24533 59.4859C6.7535 60.4458 7.40381 61.3235 8.17423 62.089C9.19455 63.1117 10.8649 64.3812 12.6141 65.0461C13.6117 65.425 14.6391 65.6086 15.6039 65.457C15.5539 65.607 15.5149 65.7523 15.4602 65.9039C15.3069 66.3279 15.1369 66.7456 14.9508 67.1562C13.7633 69.7586 14.9828 71.118 16.8789 71.9828C17.8258 72.414 18.9516 72.7086 19.9985 72.9804C20.2117 73.0359 20.4258 73.0906 20.6953 73.164C21.9352 73.4992 24.0758 74.114 26.0313 74.2383C28.1664 74.3734 30.093 73.9336 30.6094 72.0164C30.8133 71.257 30.932 70.675 30.9797 70.1062C31.0242 69.582 31.0031 69.0453 30.943 68.3922C31.5445 67.064 31.8149 66.65 32.257 66.0031L32.4813 65.6719C32.9578 64.964 33.1813 64.4625 33.2625 63.8969C33.3406 63.3515 33.2758 62.8086 33.1766 61.9773C33.1688 61.9031 33.1485 61.7601 33.1297 61.6187C34.3797 61.7797 35.6141 61.8765 36.8391 61.8844C37.4579 61.8851 38.0767 61.8679 38.6945 61.8328C38.5227 61.9219 38.4047 61.9922 38.218 62.0875L37.9867 62.2062C36.3383 63.0539 36.2695 64.6601 36.786 66.3125C37.2516 67.8023 38.2086 69.3226 38.8094 70.2476C40.0719 72.1945 41.2781 73.8414 42.7391 74.7367C44.2703 75.6758 46.0203 75.7867 48.2781 74.5648C49.4281 73.9429 49.7899 73.307 50.2781 72.4531C50.432 72.1828 50.6039 71.8883 50.7953 71.5984C51.2461 71.3094 52.4031 70.3609 53.5906 69.3797C53.9774 69.0601 54.393 68.7219 54.8281 68.368C55.1344 68.5922 55.5039 68.7484 55.9492 68.8547C56.5305 68.9937 57.2227 69.0578 58.0524 69.1172C58.6727 69.1625 60.6984 69.1601 62.0055 69.1601C62.4094 69.1601 62.7438 69.1601 62.9453 69.1617C64.2953 69.1695 65.386 69.0992 66.2094 68.632C67.0875 68.1344 67.607 67.2531 67.7203 65.6734C67.7703 64.9711 67.7789 64.5383 67.6813 64.0953C67.5914 63.6859 67.4078 63.3047 67.1078 62.7633L67.0531 60.7086L66.9953 58.5336C66.9719 57.6797 66.8781 56.9867 66.7055 56.3047C66.5336 55.6258 66.2875 54.9726 65.9594 54.1914C65.7367 53.6617 65.5563 53.1758 65.3797 52.6992V52.6961C65.0977 51.9351 64.8149 51.193 64.4258 50.4008C64.4518 50.2476 64.4779 50.0828 64.5039 49.9062L65.257 50.6328L66.3664 51.7008C67.2133 52.5164 67.9875 53.2578 68.8969 53.7945C69.836 54.3492 70.893 54.6711 72.261 54.6062C73.6945 54.5383 75.2266 53.9351 76.4891 53.0047C77.7102 52.1031 78.6906 50.8875 79.1 49.5414L79.4539 48.3742L79.7406 47.4344C81.75 47.7758 83.9031 47.8922 85.9867 47.6742C87.9969 47.4633 89.9391 46.9515 91.6141 46.0578C94.075 44.7445 95.9219 42.8078 97.2492 40.5101C98.7313 37.9422 99.5617 34.918 99.8766 31.8047C100.13 29.3078 99.9914 25.9117 99.4719 22.6375C99.0094 19.7187 98.2414 16.8875 97.1774 14.8492C97.0257 14.5743 96.8334 14.3238 96.607 14.1062C96.0774 13.5844 95.2945 13.0922 94.4852 12.814C93.6281 12.5187 92.7234 12.4586 92.0063 12.8336C91.8162 12.9323 91.643 13.0604 91.493 13.2133C91.0281 13.6851 90.636 14.2562 90.243 14.8297C89.8063 15.468 89.368 16.1094 88.843 16.5586C88.2297 17.082 87.461 17.3976 86.7383 17.6875C86.4405 16.9527 86.0812 16.2445 85.6641 15.5703C85.1735 14.7859 84.6141 14.0508 83.9984 13.3172C83.5481 12.7771 83.0375 12.2904 82.4766 11.8664C81.9453 11.4617 81.4024 11.1195 80.7695 10.7234C79.0719 9.66093 77.6274 8.39374 76.1539 7.10077C75.4836 6.51327 74.807 5.91952 74.1461 5.37421C70.6359 2.47968 67.3625 1.07733 63.8609 0.85702C63.4238 0.8295 62.9856 0.820378 62.5477 0.829676ZM46.657 0.878112C44.2766 1.45155 43.8235 1.89218 43.1094 4.22499C44.2485 2.51639 44.9047 1.96092 46.657 0.878112ZM63.1914 2.8078C66.6172 2.82186 69.7594 4.09999 73.2531 7.03671C74.9703 8.48046 76.4695 9.88202 78.2102 11.1281C77.559 11.1782 76.9198 11.3301 76.3156 11.5781C77.1906 11.4109 78.2039 11.5765 79.1125 11.7422C79.3672 11.9078 79.6292 12.0698 79.8984 12.2281C81.1266 12.9523 81.8242 13.3508 82.6555 14.5094C83.5194 15.7043 84.2745 16.9742 84.9117 18.3039C84.4899 18.1531 84.1344 18.0258 83.818 17.9312C83.4653 17.7701 83.0784 17.6983 82.6914 17.7223C82.3044 17.7463 81.9293 17.8653 81.5992 18.0687L81.5492 18.0937C80.8695 18.4242 79.8149 18.8015 79.1109 18.9156C79.4703 19.0406 80.2649 19.0875 80.6399 18.939C80.6899 18.9187 80.7412 18.9023 80.7938 18.8898C80.6199 19.186 80.5132 19.5167 80.4813 19.8586C80.4364 20.3095 80.5232 20.7638 80.7313 21.1664C80.7313 21.1674 80.7323 21.1685 80.7344 21.1695C80.7969 21.318 80.8844 21.4531 80.9797 21.5523C80.7727 21.3375 80.607 20.9508 80.6359 20.6461C80.6844 20.1484 81.086 19.7711 81.5735 19.7687C81.7366 19.7686 81.8972 19.8096 82.0404 19.8879C82.1836 19.9662 82.3048 20.0793 82.3927 20.2168C82.4807 20.3543 82.5326 20.5117 82.5437 20.6745C82.5548 20.8373 82.5247 21.0003 82.4563 21.1484C81.9703 21.2312 81.4844 21.375 80.9828 21.5586V21.557H80.9813C80.6594 21.6758 80.3328 21.8133 79.9945 21.9601C81.5656 21.7203 82.9828 21.6789 84.5172 21.8805C84.6188 22.3648 84.7203 22.8758 84.8141 23.3976L84.2438 23.443L84.1977 23.4461C83.4719 22.8664 82.6649 22.9633 81.5594 23.2156C78.2 23.9812 78.9891 25.8672 77.443 28.7078C79.0477 26.7453 78.9297 24.6945 81.5445 24.075C82.1539 23.9305 82.568 23.7492 82.9805 23.8109C82.2383 24.1844 81.5961 24.8039 81.3414 25.5226C80.6234 27.55 81.0695 29.257 80.2813 31.15C81.2578 29.4578 81.3164 27.807 82.1899 26.0265C82.5039 25.3867 83.668 24.3625 84.3828 24.3469L84.9719 24.3344C85.1438 25.4609 85.2477 26.5805 85.1805 27.5078C85.0586 29.2015 84.6203 31.7133 84.357 32.675C85.2414 31.5375 85.6438 29.1289 86.032 27.4328C86.4367 25.6672 86.3367 23.5484 85.982 21.6515C85.4953 19.0492 88.1758 19.4719 89.732 18.2453C90.8766 17.3437 91.6633 15.9031 92.7125 14.8828C93.7531 13.8711 95.3899 15.3594 95.7992 16.3476C97.5734 20.6406 98.3828 27.3945 97.9141 31.7211C97.3883 36.5765 95.0422 41.8758 90.7594 44.2664C85.3 47.3133 78.8633 45.4539 73.4391 43.6258C72.2813 43.2359 71.475 42.6664 70.4578 42.025C70.7344 43.2726 70.861 44.5937 70.4922 45.8398C69.907 47.8164 68.9617 51.0523 71.6461 51.6492C72.668 51.8758 73.132 51.8422 74.5742 51.0984C73.407 51.3617 72.818 51.2984 72.0156 51.15C71.2883 51.0164 70.9031 50.5531 70.7 50.0094C70.9539 50.1922 71.3688 50.2906 72.0766 50.4625C74.0664 50.9414 75.9625 49.9851 76.3336 48.6047C76.55 47.7984 76.5117 47.375 76.9695 46.2765C77.382 46.4031 77.8068 46.519 78.2438 46.6242L77.5055 49.0367C76.8656 51.1226 74.3742 52.8047 72.1742 52.7656C70.1399 52.7297 68.8508 51.4562 67.4469 50.207C66.5079 49.3721 65.5676 48.5388 64.6258 47.707C62.0945 46.9094 60.0656 45.9758 57.7164 44.2359C59.3883 46.2008 60.5227 47.2883 62.8539 48.2664C62.5149 51.725 61.3125 54.2469 60.2875 57.557C59.8242 59.0539 56.1617 65.0515 55.1469 65.6367C54.4234 66.0531 49.8914 69.8711 49.0391 70.3742C48.4039 71.218 47.8461 72.3828 46.8914 72.8875C43.9828 74.4265 42.1125 71.4797 40.5477 68.9922C39.8344 67.8594 37.8563 64.5953 39.5813 63.6805C41.2125 62.8164 42.1266 62.1992 43.7914 61.1062C44.036 61.5515 44.4547 61.9828 44.7281 62.4281L44.5469 60.9672C44.4375 60.0851 44.4414 59.368 44.5117 58.4805L44.7149 55.9023C44.4641 56.775 43.9633 57.6476 43.7133 58.5219C43.6133 58.8711 43.5305 59.1547 43.4828 59.4156C39.8002 60.1772 36.0059 60.2265 32.3047 59.5609C32.0836 58.2679 31.8259 56.9815 31.532 55.7031C31.4586 56.8601 31.5063 60.0586 31.5008 61.8492C31.4953 63.2375 31.4383 63.7133 30.7219 64.8937C30.0524 65.9992 29.768 66.2492 28.8297 68.1164C28.9078 69.2945 28.9094 70.0742 28.5969 71.1922C28.0758 73.0515 22.8235 71.6117 21.4383 71.232C19.7328 70.7648 16.2063 70.0703 17.093 67.7961C17.8742 65.7945 18.3688 63.6844 18.75 60.8836C15.625 56.3812 12.7172 50.2101 12.1594 44.743C11.7266 40.4976 11.986 37.8836 12.9047 35.2867C14.3602 31.1726 16.3969 27.6109 19.6641 24.743C24.0719 20.8758 28.1922 19.3226 34.6438 18.3406C33.0922 20.0773 31.5578 21.9133 29.8844 23.8828C28.1906 25.8765 27.1844 27.8898 26.1094 30.0703C24.6235 33.0812 24.6563 34.2265 26.625 36.8711C28.3219 39.1492 29.2383 40.1758 29.9789 42.4055C29.3672 43.6664 29.1438 44.732 28.9383 46.4547C31.0164 48.7258 32.5602 50.2812 34.5781 50.7609C36.557 51.2312 38.2094 51.1406 39.9797 50.2359C43.9117 48.2258 47.55 45.6297 51.9852 45.5226C54.0375 40.4773 53.8313 36.2617 52.8461 31.3805C52.1727 28.0469 51.9031 24.8898 51.6938 21.4914C50.8617 24.9914 50.7063 28.0695 51.3227 31.5562C52.0672 35.7578 52.6453 40.3992 50.575 44.0914C46.5649 44.3984 43.1266 46.839 39.511 48.7117C38.0578 49.4648 36.5469 49.5375 34.9383 49.0961C33.4453 48.6859 32.4375 47.6976 30.8289 45.843C30.8039 43.9805 31.2235 43.1211 32.0789 41.4344C33.4524 38.7266 34.9703 36.2055 36.6352 33.5398C34.5961 36 32.6649 38.0555 31.061 40.5281C30.4477 38.7812 29.5711 37.8953 28.1188 35.9281C26.7 34.0062 26.5516 33.1656 27.6125 30.943C28.6789 28.7086 29.5844 26.7445 31.3992 24.7844C34.536 21.3976 37.4086 17.6281 40.8383 14.2922C42.7008 12.4812 43.457 12.5445 45.9274 12.1695C48.1602 11.8312 50.3399 11.4047 52.6172 10.8758C50.4141 11.0812 48.2852 11.1555 46.1406 11.2086L46.0758 11.2101C48.1852 8.51639 49.4078 7.01639 52.8336 5.52811C56.5234 3.92499 59.625 2.94686 62.5016 2.82108C62.7328 2.81067 62.9628 2.80598 63.1914 2.80702V2.8078ZM65.436 14.4437C60.8469 15.5922 59.986 17.5187 60.5766 20.4812C61.0789 18.2523 61.9735 16.1055 65.436 14.4437ZM51.8399 14.6953C49.9828 14.9055 48.1289 15.0976 46.2711 15.2734C44.711 15.4219 44.4594 15.3961 43.3531 16.4898C41.6711 18.1531 40.0367 23.8594 39.5141 26.1422C40.3367 24.2461 42.3961 18.9414 43.975 17.5914C44.411 17.218 44.7149 16.9891 45.0422 16.8226C43.9125 18.7172 43.9945 19.1898 44.3906 21.7281C44.7281 19.1476 45.6203 18.15 47.086 16.2242C48.7019 15.8175 50.2898 15.3068 51.8399 14.6953ZM94.4492 14.9117C93.3852 17.0664 91.7438 18.868 89.5141 19.9719C88.318 20.5633 87.5539 20.3578 86.218 20.2312C87.5774 20.6211 88.4367 21.1109 89.7703 20.6351C92.4875 19.6664 93.7977 17.4828 94.4492 14.9117ZM84.9516 18.3883C85.0453 18.5846 85.137 18.7844 85.2266 18.9875C85.1516 19.0422 85.0807 19.1002 85.0141 19.1617C84.892 18.8771 84.7164 18.6185 84.4969 18.4C84.6448 18.3948 84.7964 18.3914 84.9516 18.3883ZM71.3625 20.0539C69.8656 20.7461 68.1242 20.5773 66.8414 21.4445C65.7102 22.2078 64.1492 24.6281 63.0008 25.6539C63.8328 25.3312 64.6336 24.7726 65.3719 24.1828C65.3753 24.6492 65.4847 25.1087 65.6918 25.5267C65.8989 25.9446 66.1982 26.31 66.5672 26.5953C66.4447 26.4842 66.344 26.3512 66.2703 26.2031C66.1763 26.006 66.1339 25.7882 66.147 25.5702C66.1601 25.3522 66.2283 25.1411 66.3453 24.9566C66.4622 24.7721 66.624 24.6204 66.8156 24.5155C67.0072 24.4106 67.2222 24.3561 67.4406 24.357C67.6842 24.358 67.9226 24.4275 68.1284 24.5577C68.3343 24.6879 68.4994 24.8734 68.6047 25.093C68.6333 25.1539 68.6568 25.2159 68.675 25.2789C68.0523 25.7361 67.4974 26.279 67.0266 26.8914V26.893C66.6029 27.4491 66.2647 28.0659 66.025 28.7226C68.2125 26.1289 71.386 24.1719 74.3688 23.3351C73.5344 23.3226 72.5461 23.4789 71.5406 23.8094C71.4783 23.2373 71.2568 22.6942 70.9013 22.2417C70.5459 21.7892 70.0707 21.4453 69.5297 21.2492C70.1961 20.893 70.8516 20.518 71.3625 20.0539ZM5.50236 22.75C1.5297 25.55 0.538295 26.8211 1.07423 32.4867C1.46798 28.0289 2.33517 26.1055 5.50236 22.75ZM2.13205 24.4351C0.124233 25.8359 -0.135924 26.414 0.050014 28.8461C0.487514 26.8398 0.894545 26.082 2.13205 24.4351ZM9.54923 25.2469C9.25783 25.8734 9.0508 26.3469 8.90939 26.8351C8.29689 28.9523 9.18595 30.843 7.26486 32.3773C8.16798 34.1992 8.12579 34.925 10.2258 34.0828C11.0367 33.7586 11.7055 33.3031 12.3016 32.7648C11.9644 33.6421 11.659 34.5312 11.386 35.4305C9.88361 36.068 7.90783 36.4742 7.15158 34.8945C6.78439 34.1289 6.57736 33.3765 6.30939 32.4078C3.83517 29.8445 7.53439 26.4601 9.54923 25.2469ZM10.0617 26.393C10.5735 26.6906 10.7086 27.232 10.7649 27.9609C10.4602 27.6562 10.2156 27.4476 9.82033 27.4922C9.86534 27.1189 9.94618 26.7508 10.0617 26.393ZM66.7149 26.7008C66.8034 26.7622 66.8948 26.8187 66.9891 26.8703C66.8921 26.8234 66.8002 26.7666 66.7149 26.7008ZM72.0156 40.0094C71.4727 40.1015 70.5 40.3008 69.957 40.3922C68.5078 40.6375 68.3375 40.9859 68.1125 42.4125C68.0063 43.0844 67.8594 43.918 67.7531 44.5906C68.0375 43.8305 68.3805 42.9469 68.7117 42.2219C69.0625 41.4562 69.2586 41.3836 70.0031 40.9789C70.5305 40.6914 71.4875 40.2961 72.0156 40.0094ZM11.7235 50.0156C12.8625 53.9539 14.8016 57.8234 16.9508 61.0765V61.1344C16.8164 61.6937 16.6617 62.2383 16.3344 62.6758C14.7977 64.732 10.8883 61.7148 9.75626 60.5594C8.51955 59.2961 7.69064 57.7992 7.49376 56.3969C7.35001 55.3734 7.48908 55.3492 8.20314 54.625L11.0899 51.7031L11.7235 50.0156ZM63.4156 52.5898C63.6508 53.3531 63.836 54.1101 64.1781 54.9211C64.75 56.2758 65.0289 57.114 65.0695 58.568L65.2008 63.1687C65.6914 64.0281 65.7688 64.2109 65.6813 65.1922C65.5039 67.1953 64.8352 67.3281 63.075 67.2976C62.2758 67.2836 59.093 67.2679 58.286 67.1984C57.1445 67.1 56.5047 66.9992 56.1555 66.739C57.9484 65.4226 60.9953 59.989 61.5891 58.1179C62.2164 56.1414 62.9039 54.4164 63.4156 52.5898Z" fill="black"/>
</svg>
