<svg width="900" height="1109" viewBox="0 0 900 1109" fill="none" xmlns="http://www.w3.org/2000/svg">
<circle cx="450" cy="450" r="450" fill="white"/>
<path d="M416.265 1109L549.87 1100.47L547.943 1042.2L497.862 1038.64C491.215 1071.38 453.083 1090.06 435.453 1093.37C417.26 1096.78 415.081 1105.21 416.265 1109Z" fill="black"/>
<path d="M547.027 1014.48C529.498 1011.17 494.438 1004.96 494.438 1006.67C499.07 1018.48 499.789 1029.16 497.862 1038.65L547.943 1042.2L547.027 1014.48Z" fill="white" stroke="black" stroke-width="2.91102"/>
<path d="M547.027 1014.48C529.497 1011.17 494.438 1004.96 494.438 1006.67L547.52 1029.41L547.027 1014.48Z" fill="#241715"/>
<path d="M345.457 606.674C269.494 649.449 312.27 754.913 337.345 759.338C356.658 762.746 420.149 760.792 450.921 759.338L689.134 583.074L549.745 563.899C506.97 563.899 406.228 572.454 345.457 606.674Z" fill="white"/>
<path d="M450.921 759.338C449.822 759.393 452.111 759.281 450.921 759.338ZM450.921 759.338C420.149 760.792 356.658 762.746 337.345 759.338C312.27 754.913 269.494 649.449 345.457 606.674C406.228 572.454 506.97 563.899 549.745 563.899L689.134 583.074L450.921 759.338Z" stroke="black" stroke-width="2.91102"/>
<path d="M366.106 621.152C418.616 611.122 461.244 641.965 475.994 658.64C478.457 655.195 481.122 651.789 483.998 648.44C479.464 628.527 391.181 607.14 366.106 621.152Z" fill="#000001"/>
<path d="M445.596 761.52C447.46 761.439 449.239 761.358 450.92 761.278L645.486 617.312C636.915 614.413 614.823 605.494 595.029 593.009C460.733 608.923 439.451 711.98 445.596 761.52Z" fill="#0E1729"/>
<path d="M667.745 761.277C764.357 730.302 689.132 590.176 689.132 585.014L652.994 580.042C468.912 591.405 441.576 705.6 450.918 761.277L481.984 1017.19H562.037L568.919 761.277H667.745Z" fill="white" stroke="black" stroke-width="2.91102"/>
<path d="M562.654 994.245H479.198L477.314 978.72H562.037H562.654V994.245Z" fill="#0E1729"/>
<path d="M563.633 957.857H474.781L473.191 944.758H563.985L563.633 957.857Z" fill="#0E1729"/>
<path d="M549.745 708.178C561.545 719.978 567.446 748.495 568.921 761.278H579.983C577.033 746.774 566.855 715.848 549.745 708.178Z" fill="#000001"/>
<rect x="52" y="761" width="796" height="3" fill="black"/>
<path d="M564.714 314.088C560.83 309.143 550.73 293.958 541.407 272.77C543.526 270.297 547.552 262.81 546.704 252.64C535.686 250.945 529.009 227.213 527.048 215.56C541.679 207.444 529.212 185.793 533.991 184.837C539.288 183.777 553.061 189.074 553.061 202.846C553.061 216.619 576.657 210.118 582.725 207.084C597.556 199.668 592.26 217.68 585.903 234.63C582.513 240.563 594.378 251.934 600.735 256.878C602.429 273.829 587.315 299.962 579.546 310.909C580.606 342.692 580.818 406.258 573.19 406.258C568.105 396.088 565.421 340.573 564.714 314.088Z" fill="white" stroke="black" stroke-width="1.94068"/>
<path d="M555.177 217.673C553.411 219.438 550.939 224.453 555.177 230.386" stroke="#241715" stroke-width="0.970341"/>
<path d="M563.652 233.572C562.946 237.456 559.838 243.319 553.058 235.691" stroke="#241715" stroke-width="0.970341"/>
<path d="M586.96 220.854C588.372 216.969 590.138 209.412 585.9 210.259" stroke="#241715" stroke-width="0.970341"/>
<path d="M545.572 264.292C546.506 261.057 547.075 257.107 546.702 252.638C552.573 255.817 562.592 256.877 583.781 242.043C584.627 253.062 558.661 261.466 545.572 264.292Z" fill="black"/>
<path d="M599.674 184.836C607.09 202.846 590.139 227.213 585.901 234.629C592.258 217.679 596.495 199.667 582.723 207.083C576.75 210.299 553.059 216.618 553.059 202.845C553.059 189.073 539.286 183.776 533.989 184.836C529.21 185.792 541.677 207.443 527.047 215.559C525.46 216.439 523.556 217.159 521.276 217.678C526.573 210.261 524.454 211.321 520.217 193.311C515.979 175.3 535.049 171.063 553.059 168.944C571.069 166.825 592.258 166.825 599.674 184.836Z" fill="black"/>
<path d="M699.26 299.256C685.699 281.457 627.924 263.588 600.732 256.879C602.427 273.829 587.313 299.962 579.544 310.91C580.604 342.693 580.815 406.259 573.188 406.259C568.102 396.088 565.418 340.574 564.712 314.088C560.827 309.144 550.728 293.959 541.405 272.77C539.286 279.127 482.076 322.563 472.541 336.336C463.006 350.109 459.828 482.538 459.828 494.192C459.828 505.846 455.59 585.303 490.552 585.303C518.521 585.303 632.869 589.188 690.784 590.6C699.26 500.901 712.82 317.054 699.26 299.256Z" fill="black"/>
<path d="M459.831 494.185C517.747 482.178 633.578 468.971 633.578 512.196C633.578 555.42 579.9 579.849 553.061 586.659M633.578 266.307C626.515 269.518 611.542 284.629 608.152 319.379C603.914 362.815 590.311 377.647 579.291 377.647M568.477 379.766C559.454 384.71 539.712 388.454 532.932 363.875C524.457 333.151 506.774 316.2 487.011 321.497M665.361 278.061C663.242 277.165 629.341 300.309 626.162 353.28C622.984 406.252 589.082 505.839 519.159 452.867C492.672 426.381 467.151 409.784 462.865 411.549M541.408 586.339C550.942 577.163 567.47 555.844 557.299 543.979C547.128 532.113 491.497 548.216 464.953 557.751M704.348 326.795C681.464 340.92 639.299 385.911 653.708 452.867C666.421 491.007 689.653 487.122 699.68 480.413M695.847 532.325C682.153 532.505 656.038 544.254 661.124 589.805" stroke="white" stroke-width="0.970341"/>
<path d="M573.188 585.293V407.308" stroke="#027269" stroke-width="0.970341"/>
<path d="M573.824 583.56L568.617 544.847C556.777 546.995 532.119 549.076 513.071 550.881C493.13 552.771 488.105 563.241 501.49 566.585C494.489 565.711 486.65 575.364 497.822 579.686C489.627 582.597 505.836 585.845 513.782 585.861C509.234 586.548 501.349 587.815 502.421 592.634C503.493 597.452 550.469 588.592 573.824 583.56Z" fill="white"/>
<path d="M573.824 583.561L568.617 544.848C565.863 545.348 562.415 545.844 558.505 546.334L546.66 588.952C556.612 587.142 566.409 585.159 573.824 583.561Z" fill="black"/>
<path d="M514.106 586.146L530.58 581.509" stroke="black" stroke-width="0.970341"/>
<path d="M501.596 575.801L530.476 572.295" stroke="black" stroke-width="0.970341"/>
<path d="M501.491 566.584L530.988 561.482" stroke="black" stroke-width="0.970341"/>
<path d="M730.692 549.565C733.255 508.991 736.054 304.522 690.286 293.5C637.382 280.759 638.076 475.755 661.043 520.24L553.016 531.222L563.152 598.623C615.673 594.955 726.449 616.703 730.692 549.565Z" fill="black"/>
<path d="M690.285 293.499C637.382 280.759 638.075 475.754 661.043 520.24L553.015 531.222" stroke="white" stroke-width="0.970341"/>
<path d="M712.322 322.883C695.975 324.661 659.645 334.099 650.733 356.221M722.493 358.481C707.761 364.925 673.271 386.617 668.92 408.885C664.57 431.152 710.646 423.634 729.274 419.505M730.404 458.493C714.92 465.722 660.644 470.52 648.473 453.973M730.968 527.993C715.111 518.37 669.46 499.161 657.514 506.522M614.571 524.603C607.79 539.294 618.409 593.315 648.473 599.189" stroke="white" stroke-width="0.970341"/>
<path d="M267.324 447.458H449.26C452.447 447.458 455.311 449.407 456.481 452.372L510.515 589.342C511.685 592.307 514.548 594.256 517.736 594.256H659.251C661.854 594.256 663.964 596.366 663.964 598.969C663.964 601.573 661.854 603.683 659.251 603.683H323.118C319.935 603.683 317.075 601.74 315.902 598.782L260.107 458.082C258.087 452.986 261.842 447.458 267.324 447.458Z" fill="white" stroke="black" stroke-width="2.91102"/>
<path d="M455.651 450.129L515.502 594.256H511.46C508.326 594.256 505.499 592.371 504.294 589.477L447.65 453.456C446.462 450.603 448.559 447.458 451.65 447.458C453.401 447.458 454.98 448.512 455.651 450.129Z" fill="black"/>
<path d="M315.902 598.782L260.107 458.082C258.087 452.986 261.842 447.458 267.324 447.458H281.352C282.507 447.458 283.643 447.716 284.692 448.199C289.658 450.486 297.954 454.082 311.731 461.043C357.822 484.331 363.644 533.818 353.941 558.077C346.074 577.743 450.053 598.071 490.905 603.683H323.118C319.935 603.683 317.075 601.74 315.902 598.782Z" fill="black"/>
<ellipse cx="11.5736" cy="13.3097" rx="11.5736" ry="13.3097" transform="matrix(-0.936312 0.351169 0.351169 0.936312 384.862 495.975)" fill="black"/>
</svg>
