<svg width="100" height="161" viewBox="0 0 100 161" fill="none" xmlns="http://www.w3.org/2000/svg">
<path d="M34.3484 14.3122C32.5711 12.5303 30.0922 11.4298 27.3363 11.4298C24.5906 11.4298 22.1309 12.5303 20.3746 14.3122H20.3238C18.5523 16.086 17.4496 18.5614 17.4496 21.3019C17.4496 24.0522 18.5523 26.5069 20.3242 28.2701L20.3746 28.3099C22.1309 30.0836 24.5906 31.1736 27.3363 31.1736C30.0922 31.1736 32.5715 30.0832 34.3484 28.3099L34.375 28.2705C36.1555 26.5073 37.2477 24.0525 37.2477 21.3019C37.2477 18.5618 36.1555 16.086 34.375 14.3126L34.3484 14.3122ZM27.3363 149.443C29.9617 149.445 32.4817 148.413 34.3484 146.571L34.3746 146.519C36.1551 144.769 37.2473 142.294 37.2473 139.573C37.2473 136.822 36.1551 134.357 34.3746 132.575H34.3484C32.5711 130.772 30.0922 129.682 27.3363 129.682C24.5906 129.682 22.1309 130.772 20.3746 132.575H20.3238C18.5523 134.357 17.4496 136.822 17.4496 139.573C17.4496 142.294 18.5523 144.769 20.3242 146.519L20.3746 146.571C21.2886 147.483 22.374 148.206 23.5686 148.699C24.7633 149.192 26.0436 149.445 27.3363 149.443ZM81.2316 119.535C83.6828 118.894 85.9023 117.324 87.2563 114.95L87.4391 114.605C88.643 112.353 88.8625 109.755 88.2195 107.454C87.5715 104.988 85.9793 102.808 83.6062 101.443L83.4687 101.351C81.157 100.087 78.5227 99.8122 76.1027 100.464C73.643 101.076 71.434 102.716 70.0871 105.07C68.723 107.401 68.4375 110.091 69.091 112.567C69.7648 115.001 71.3414 117.202 73.6988 118.577H73.7145C76.0766 119.932 78.7527 120.177 81.2316 119.535ZM37.4883 70.3204C34.8891 67.733 31.307 66.1125 27.3367 66.1125C23.382 66.1125 19.8086 67.733 17.2148 70.3204C14.6328 72.8987 13.0406 76.4641 13.0406 80.4162C13.0406 84.3788 14.6328 87.9551 17.2148 90.5631C19.8086 93.1289 23.382 94.7389 27.3367 94.7389C31.307 94.7389 34.8891 93.1289 37.4883 90.5631C40.0754 87.9551 41.668 84.3788 41.668 80.4162C41.668 76.4645 40.0754 72.8987 37.4883 70.3204ZM31.7813 53.4937C37.5336 54.4394 42.7094 57.1901 46.659 61.1628H46.6902C47.3243 61.8024 47.9272 62.472 48.4969 63.1693L58.3734 57.4665C57.0457 53.4625 56.9848 49.2761 58.0508 45.3537C59.4605 40.096 62.875 35.3896 67.9934 32.4358L68.1625 32.3345C73.225 29.4712 78.9813 28.8802 84.1781 30.2867C86.8878 31.0089 89.4279 32.2582 91.6525 33.9628C93.8771 35.6673 95.7425 37.7936 97.1414 40.2196V40.2297C100.082 45.3034 100.68 51.1294 99.2758 56.366C97.877 61.6201 94.4465 66.3577 89.3332 69.2908L87.9848 70.0872H87.8473C83.1172 72.3369 77.9152 72.6847 73.1383 71.431C69.2148 70.3913 65.6156 68.211 62.7984 65.104L52.9379 70.7897C54.1039 73.8657 54.7007 77.1274 54.6992 80.4162C54.6981 83.7212 54.1014 86.9991 52.9375 90.0933L62.7984 95.7576C65.6156 92.6109 69.2148 90.4707 73.1383 89.431C78.3996 87.9949 84.234 88.6069 89.3336 91.5712L89.659 91.7244V91.745C94.5859 94.7183 97.8926 99.3237 99.2758 104.519C99.9991 107.213 100.183 110.024 99.8167 112.789C99.4504 115.555 98.5413 118.221 97.1414 120.636L96.9641 120.992L96.943 120.961C93.9883 125.862 89.3336 129.183 84.1937 130.588C78.9203 131.973 73.0875 131.382 67.9934 128.459V128.418C62.875 125.464 59.4605 120.747 58.0508 115.502C56.9848 111.59 57.0457 107.401 58.3734 103.399L48.4969 97.7137C47.9305 98.4076 47.3172 99.0594 46.6902 99.6906L46.659 99.7202C42.7098 103.674 37.5336 106.425 31.7809 107.341V118.73C35.8801 119.586 39.5543 121.634 42.4344 124.506L42.448 124.537C46.3074 128.367 48.6957 133.705 48.6957 139.573C48.6957 145.422 46.307 150.726 42.448 154.577L42.4344 154.638C38.5492 158.489 33.2164 160.873 27.3367 160.873C21.4883 160.873 16.1484 158.489 12.2742 154.638H12.2602V154.577C8.3957 150.726 6.00234 145.422 6.00234 139.573C5.99852 136.778 6.54957 134.011 7.62366 131.43C8.69775 128.849 10.2736 126.507 12.2602 124.537V124.506H12.2738C15.1488 121.634 18.8281 119.586 22.9168 118.73V107.341C17.159 106.425 11.9988 103.674 8.0543 99.7202L8.0125 99.6906C3.08203 94.7495 0 87.9551 0 80.4162C0 72.8987 3.08203 66.1039 8.01211 61.1628H8.05391C11.9984 57.1905 17.1586 54.4394 22.9164 53.4937V42.1547C18.8885 41.2782 15.1956 39.2705 12.2734 36.3685H12.2598V36.3373C8.39531 32.467 6.00195 27.1692 6.00195 21.3015C6.00195 15.4634 8.39531 10.1153 12.2598 6.26419L12.2734 6.24508C16.1484 2.38381 21.4883 0 27.3359 0C33.216 0 38.5488 2.38381 42.4336 6.24508V6.26458H42.4477C46.307 10.1153 48.6953 15.4634 48.6953 21.3015C48.6953 27.1692 46.3066 32.467 42.4477 36.3373L42.434 36.3685C39.5539 39.2216 35.8797 41.2678 31.7805 42.1547L31.7813 53.4937ZM87.2566 45.9341L87.1746 45.8125C85.8105 43.5195 83.6363 41.991 81.232 41.3287C78.7531 40.6769 76.077 40.9533 73.6992 42.3075H73.7148C71.3418 43.6517 69.7547 45.8526 69.091 48.3179C68.7547 49.5715 68.6696 50.879 68.8406 52.1654C69.0116 53.4519 69.4354 54.692 70.0875 55.8148L70.1328 55.8771C70.7817 56.984 71.6431 57.9521 72.6676 58.7261C73.6921 59.5 74.8596 60.0646 76.1031 60.3875C77.355 60.7363 78.6644 60.8305 79.9534 60.6644C81.2425 60.4983 82.485 60.0754 83.607 59.4207L83.734 59.3599C86.0406 57.9846 87.577 55.8148 88.2199 53.4313C88.8734 50.9762 88.6137 48.2867 87.2566 45.9341Z" fill="#1A1919"/>
</svg>
