<svg width="84" height="100" viewBox="0 0 84 100" fill="none" xmlns="http://www.w3.org/2000/svg">
<path d="M59.0906 74.7094L47.8562 85.5625C45.9062 87.5156 43.2187 88.3281 40.2562 88.3281C37.2937 88.3281 34.6093 87.5156 32.6562 85.5625L14.6062 67.4C12.6687 65.4469 11.6781 62.5969 11.6781 59.6344C11.6781 56.6594 12.6687 53.9719 14.6062 52.0344L32.6062 33.7719C34.5437 31.8375 37.2937 31.0875 40.2562 31.0875C43.2187 31.0875 45.9062 31.9 47.8562 33.8531L59.0906 44.7063C61.2375 46.8563 64.7875 46.7781 67.0156 44.5438C69.2281 42.3156 69.3125 38.7688 67.1625 36.6188L56.3093 25.6469C53.4973 22.8748 49.9684 20.941 46.1187 20.0625L56.3906 9.64688C58.5406 7.5 58.475 3.95 56.2437 1.72188C54.0125 -0.506248 50.4656 -0.574998 48.3187 1.55938L6.22808 43.65C2.1437 47.75 0.0124512 53.3781 0.0124512 59.6281C0.0124512 65.8656 2.14683 71.6906 6.22808 75.7781L24.3437 93.9406C28.4281 98.025 34.0781 99.9937 40.3281 99.9937C46.5625 99.9937 52.2062 97.8594 56.2937 93.7781L67.1656 82.775C69.3156 80.6406 69.2312 77.0969 67.0031 74.8656C64.775 72.6344 61.225 72.5531 59.0937 74.7031L59.0906 74.7094ZM78.7156 54.2156H36.4312C33.5187 54.2156 31.1437 56.7187 31.1437 59.8125C31.1437 62.9094 33.5187 65.4281 36.4312 65.4281H78.7156C81.6312 65.4281 84.0062 62.9062 84.0062 59.8125C84.0062 56.7187 81.6312 54.2156 78.7156 54.2156Z" fill="black"/>
</svg>
