<svg width="84" height="68" viewBox="0 0 84 68" fill="none" xmlns="http://www.w3.org/2000/svg">
<path d="M8.66671 67.3334C6.37504 67.3334 4.41393 66.5181 2.78337 64.8875C1.15282 63.257 0.336152 61.2945 0.333374 59V9.00002C0.333374 6.70835 1.15004 4.74724 2.78337 3.11669C4.41671 1.48613 6.37782 0.669465 8.66671 0.666687H75.3334C77.625 0.666687 79.5875 1.48335 81.2209 3.11669C82.8542 4.75002 83.6695 6.71113 83.6667 9.00002V59C83.6667 61.2917 82.8514 63.2542 81.2209 64.8875C79.5903 66.5209 77.6278 67.3361 75.3334 67.3334H8.66671ZM8.66671 59H75.3334V17.3334H8.66671V59ZM23.25 54.8334L17.4167 49L28.1459 38.1667L17.3125 27.3334L23.25 21.5L39.9167 38.1667L23.25 54.8334ZM42 54.8334V46.5H67V54.8334H42Z" fill="black"/>
</svg>
