<svg width="150" height="150" viewBox="0 0 150 150" fill="none" xmlns="http://www.w3.org/2000/svg">
<path d="M5.9375 88.65L75 127.519L136.994 92.8312V106.644L75 141.638L9.475 104.387L5.94375 106.313V111.125L75 150L144.063 111.137V84.1563L140.844 82.225L75 119.488L13.3312 84.1563V70.3438L75 105.031L144.063 66.1687V39.5L140.844 37.575L75 74.8375L16.5438 41.7563L75 8.675L123.5 35.975L127.675 33.4062V29.8687L75 0L5.9375 39.1875V43.6875L75 82.5437L136.994 47.8563V61.9812L75 97L9.475 59.75L5.94375 61.675L5.9375 88.65Z" fill="black"/>
</svg>
