<svg width="100" height="52" viewBox="0 0 100 52" fill="none" xmlns="http://www.w3.org/2000/svg">
<path d="M56.0391 23.7523L56.9477 18.5961H59.8023L59.6211 19.6352H57.843L57.6609 20.6352H59.2922L59.1141 21.6711H57.4797L57.2977 22.707H59.0766L58.8945 23.7461H56.0391M52.1727 21.6898H49.9344L49.5711 23.7625H48.4977L49.4055 18.6062H50.4828L50.1227 20.6437H52.3609L52.7242 18.6062H53.8008L52.893 23.7625H51.8164L52.1758 21.6898M45.4078 23.5898C45.043 23.7608 44.6458 23.8514 44.243 23.8555C42.8813 23.8555 42.0266 22.8352 42.0266 21.5547C42.0266 19.9211 43.4008 18.543 45.0383 18.543C45.4484 18.543 45.818 18.6437 46.1211 18.8094L45.968 20.043C45.7422 19.793 45.3766 19.6172 44.9258 19.6172C43.9891 19.6172 43.1531 20.4656 43.1531 21.4453C43.1531 22.1937 43.6234 22.7789 44.3648 22.7789C44.8187 22.7789 45.257 22.6039 45.5547 22.3656L45.4109 23.5898M37.3555 21.6273H38.4133L38.1633 20.0211L37.3555 21.6273ZM38.5797 22.6633H36.8172L36.2563 23.7625H35.0078L37.7633 18.6062H38.9656L39.9047 23.7625H38.7461L38.5797 22.6633ZM32.1063 19.6609H31.4766L31.2672 20.8508H31.893C32.2758 20.8508 32.5727 20.6008 32.5727 20.1305C32.5727 19.8203 32.3852 19.6609 32.1031 19.6609H32.1063ZM30.5844 18.625H32.2344C33.0984 18.625 33.6992 19.1383 33.6992 20.0211C33.6992 21.1352 32.9141 21.8836 31.793 21.8836H31.082L30.7477 23.7687H29.6703L30.5781 18.6156M24.5672 21.6273H25.625L25.375 20.0211L24.5672 21.6273ZM25.7945 22.6633H24.0313L23.4711 23.7625H22.2211L24.9766 18.6062H26.1789L27.118 23.7625H25.9625L25.7945 22.6633ZM92.7625 46.3977V44.5938H92.7531L92.0422 46.3969H91.8172L91.1094 44.5938H91.0969V46.3969H90.743V44.2367H91.2945L91.9391 45.8805L92.575 44.2367H93.1219V46.3969L92.7625 46.3977ZM89.6258 44.525V46.3969H89.2719V44.525H88.5922V44.2367H90.3047V44.525H89.6289M69.8898 27.8102L69.3289 32.0617C68.4586 32.0617 67.6102 32.0586 66.7586 32.0648C66.0703 32.068 65.4406 32.5156 65.2313 33.1602C65.1531 33.4109 65.1219 33.6805 65.0875 33.9461L63.7969 43.7391L63.4781 46.225H59.1922C59.2734 45.5953 59.3484 44.9883 59.4266 44.3773C59.7055 42.2586 59.9844 40.1266 60.2656 38.032C60.507 36.2 60.7266 34.3602 61.0109 32.5242C61.3961 30.0766 63.8313 27.8852 66.2953 27.7883C67.4727 27.7383 68.6562 27.782 69.8711 27.782M52.4961 40.2766C52.2641 42.0453 52.0445 43.7234 51.8195 45.3984C51.807 45.4859 51.7414 45.6016 51.6688 45.6328C48.2219 47.2234 43.7109 47.0016 40.9086 43.8016C39.393 42.0797 38.7609 40.032 38.8516 37.775C39.0742 32.525 43.4297 27.9195 48.6445 27.275C51.6914 26.9023 54.3492 27.7227 56.4086 30.0891C57.8148 31.7016 58.4656 33.6328 58.3687 35.7586C58.3062 37.1648 58.0836 38.5578 57.9117 39.9477C57.6641 41.9266 57.3922 43.9109 57.132 45.8742C57.1227 45.943 57.107 46.0148 57.0914 46.1031H52.9992C53.0531 45.6484 53.1031 45.2047 53.1625 44.7594C53.4594 42.4781 53.7883 40.1859 54.0484 37.9C54.2109 36.4758 54.1078 35.0609 53.4563 33.743C52.7609 32.343 51.6031 31.5984 50.0727 31.4383C46.9102 31.1039 43.8891 33.2977 43.2445 36.3977C42.7992 38.4547 43.5008 40.4234 45.1383 41.5195C46.732 42.5805 48.4227 42.5836 50.1633 41.8984C51.0461 41.5469 51.7945 40.9937 52.5078 40.2516M18.8656 24.6547C17.4477 25.7094 16.0789 26.7266 14.7078 27.7508C14.4891 27.4031 14.2914 27.0523 14.0594 26.7273C13.4617 25.8937 12.7234 25.2711 11.6461 25.1992C10.7508 25.1367 9.98359 25.4305 9.37266 26.0914C8.83203 26.6797 8.75938 27.5219 9.26719 28.1891C9.82734 28.9219 10.4406 29.6164 11.0672 30.2984C12.1094 31.4258 13.1961 32.5063 14.2258 33.6492C15.1617 34.6789 15.9133 35.8312 16.1453 37.2555C16.4203 38.9305 16.0852 40.5078 15.2938 41.9922C13.8281 44.7125 11.5273 46.3062 8.46563 46.7914C7.11953 47.0078 5.77891 46.9672 4.47031 46.5789C2.72656 46.068 1.51562 44.9227 0.735937 43.3258C0.460156 42.7555 0.247656 42.1516 0 41.5414C1.525 40.7273 3.00859 39.9289 4.51172 39.1273C4.56172 39.2523 4.59922 39.3562 4.64609 39.4562C4.90234 39.9695 5.11484 40.5148 5.42891 40.9875C6.37422 42.3859 7.89531 42.8125 9.42344 42.1203C9.82541 41.9376 10.198 41.6962 10.5289 41.4039C11.5211 40.5211 11.7086 39.2906 10.9734 38.182C10.5508 37.5438 10.0242 36.9711 9.50781 36.4008C8.27734 35.0328 6.99375 33.7117 5.80469 32.3086C4.975 31.3477 4.41094 30.2336 4.23281 28.9594C4.03516 27.5531 4.31719 26.2328 5.04688 25.0609C6.85937 22.125 9.49219 20.6156 12.9703 20.7125C14.9586 20.7852 16.5461 21.7148 17.7695 23.2609C18.1367 23.718 18.4773 24.1906 18.8469 24.6859M33.1672 36.0906C33.0977 35.7313 33.0477 35.2047 32.8883 34.7102C32.1148 32.3305 29.6758 31.0383 27.1523 31.6141C24.3789 32.2586 22.3844 34.4406 22.1281 37.2836C21.9148 39.3773 23.0422 41.407 25.1359 42.1484C26.8234 42.7594 28.4547 42.5023 29.9672 41.5977C31.9672 40.3984 33.0508 38.6172 33.1883 36.0906H33.1672ZM20.9906 44.9477C20.8531 45.9711 20.725 46.9352 20.5961 47.9031C20.4242 49.1911 20.2583 50.4799 20.0984 51.7695C20.0797 51.9164 20.0328 51.9852 19.8727 51.982L16.0719 51.9758C16.0406 51.9758 16.0125 51.9602 15.9438 51.9414C16.0219 51.3375 16.0969 50.7266 16.1758 50.1227C16.4529 47.9977 16.7336 45.8708 17.018 43.7422C17.343 41.3094 17.5969 38.8805 18.0133 36.4633C18.7461 32.1773 22.393 28.5055 26.6445 27.5727C29.1148 27.0367 31.4781 27.2836 33.6352 28.6773C35.7859 30.0609 37.0164 32.093 37.307 34.6039C37.7086 38.1789 36.3906 41.1437 33.8609 43.6234C32.1922 45.2391 30.1891 46.2625 27.9 46.6102C25.5266 46.9672 23.2945 46.5727 21.2977 45.1727C21.225 45.1227 21.1437 45.0758 21.0187 44.9977M87.6086 46.3969C85.8492 46.3938 84.0961 46.3875 82.3242 46.3937C82.0922 46.3937 81.9609 46.3281 81.832 46.1312C79.7508 42.9594 77.6437 39.7852 75.5805 36.6258C75.5148 36.5258 75.4461 36.4289 75.3266 36.2602C74.8789 39.6758 74.4375 43.0258 73.9961 46.375H69.3914C69.4445 45.9273 69.4914 45.4922 69.5477 45.0602C69.9953 41.6133 70.4492 38.1977 70.9 34.7508C71.332 31.4664 71.7609 28.1797 72.1992 24.8953C72.2117 24.7984 72.2773 24.6734 72.3555 24.6234C73.943 23.5867 75.5336 22.5633 77.1242 21.5391C77.1461 21.5234 77.1805 21.5234 77.2617 21.4984C76.7828 25.1703 76.3039 28.8117 75.8242 32.45L75.8812 32.4906C78.3789 29.7258 80.8742 26.9492 83.4203 24.1469C83.4914 24.5727 83.557 24.9359 83.6203 25.2992C83.7984 26.3422 83.9703 27.3875 84.1617 28.4266C84.1992 28.6367 84.143 28.7648 84.0023 28.9156C82.3898 30.6031 80.7836 32.2961 79.1711 34.0023C79.1023 34.0781 79.0336 34.1563 78.9555 34.2438C79.0055 34.325 79.0492 34.4031 79.1023 34.4781C81.8734 38.3766 84.6406 42.2742 87.4109 46.1719C87.4617 46.2406 87.5359 46.2969 87.5961 46.3594V46.4219M91.4711 26.2633C91.3875 26.0789 91.3461 25.9852 91.2992 25.8977C90.0477 23.5148 88.7984 21.1289 87.5305 18.7469C87.4055 18.5055 87.4211 18.3648 87.593 18.1578C89.5867 15.832 91.5563 13.4875 93.5539 11.1703C93.6364 11.0824 93.6918 10.9725 93.7133 10.8539C93.1352 11.0039 92.5539 11.1555 91.9695 11.3086C89.5648 11.9469 87.1391 12.582 84.7562 13.2305C84.5312 13.2898 84.4305 13.2242 84.3188 13.0367L80.1953 6.20859L79.8945 5.87656L79.5625 7.69844C79.1805 9.84922 78.7953 11.9844 78.4164 14.1414C78.3758 14.3734 78.3195 14.6078 78.2977 14.8398C78.2789 15.0586 78.1664 15.143 77.9625 15.2062C75.1266 16.0995 72.2924 16.9958 69.4602 17.8953C69.3352 17.9359 69.2125 17.9859 69.0773 18.1078C71.3977 19.0281 73.718 19.9492 76.0687 20.8883C75.9844 20.9539 75.9281 21.007 75.8656 21.0477L71.5164 23.8625C71.3414 23.9781 71.2039 23.9937 71.0094 23.9062C69.275 23.1266 67.5312 22.3594 65.7906 21.5859C65.0109 21.2391 64.3133 20.7758 63.768 20.1055C62.5352 18.6 62.7789 16.8844 64.4227 15.8227C64.9617 15.4789 65.5711 15.225 66.182 15.0242C68.9625 14.1195 71.7547 13.2461 74.5258 12.3695C74.757 12.2945 74.8664 12.1914 74.9102 11.9375C75.2828 9.78672 75.668 7.62031 76.0562 5.49453C76.2664 4.34609 76.3758 3.16875 76.9328 2.11328C77.1492 1.70703 77.4023 1.30859 77.7125 0.970311C78.8203 -0.259376 80.3641 -0.303126 81.5477 0.867186C81.9422 1.26172 82.2797 1.725 82.5742 2.20703C83.8641 4.31094 85.132 6.42734 86.4062 8.55312C86.5562 8.80312 86.6914 8.8539 86.9664 8.78203C90.0758 7.94609 93.1844 7.12578 96.3086 6.30234C96.9539 6.13281 97.6016 6.07031 98.2617 6.19609C99.6961 6.46172 100.322 7.55468 99.8367 8.94453C99.618 9.57344 99.2359 10.1062 98.807 10.6102C96.6344 13.1648 94.4586 15.7352 92.2984 18.2773C92.1227 18.4867 92.1195 18.6367 92.2422 18.8719C93.5445 21.3234 94.8312 23.7688 96.1398 26.2477C96.45 26.8336 96.6875 27.4469 96.6945 28.1203C96.7102 29.6539 95.5852 30.9094 94.0609 31.1352C93.2094 31.2602 92.4141 31.0789 91.6125 30.8312C89.6609 30.2271 87.7065 29.6323 85.7492 29.0469C85.5703 28.9906 85.4984 28.9187 85.4672 28.7242C85.2414 27.3492 84.9977 25.9789 84.7594 24.6008C84.7531 24.5633 84.7625 24.5227 84.7687 24.4383C86.9953 25.0555 89.2141 25.6594 91.5031 26.2945" fill="black"/>
</svg>
