<svg width="96" height="87" viewBox="0 0 96 87" fill="none" xmlns="http://www.w3.org/2000/svg">
<path d="M39.1523 0.0609131C17.7492 0.0609131 0.39917 3.04841 0.365576 6.73279L0.364014 6.72576V28.0484C0.364014 31.7383 17.7289 34.7164 39.1523 34.7164C60.5742 34.7164 77.9398 31.7195 77.9398 28.0484V6.72576L77.9382 6.73357C77.9046 3.04841 60.5515 0.0609131 39.1523 0.0609131ZM25.6617 13.0062C26.7471 13.0765 27.8539 13.138 28.982 13.1906C28.5335 13.1703 28.0601 13.1594 27.6179 13.1359C26.946 13.1 26.3171 13.0484 25.6617 13.0062ZM41.6406 13.4094C40.8093 13.4187 39.9968 13.4383 39.1523 13.4383V13.4367C38.6414 13.4367 38.1562 13.4203 37.6507 13.4172C38.1523 13.4203 38.6453 13.4304 39.1523 13.4304C39.9921 13.4304 40.814 13.4179 41.6406 13.4094ZM0.364014 33.5015V52.0718C0.364014 55.7648 17.7289 58.7398 39.1523 58.7398C44.232 58.7398 49.0523 58.5617 53.4937 58.2554C56.8703 49.7297 65.1828 43.6976 74.9093 43.6976C75.9375 43.6976 76.9476 43.7719 77.9398 43.9023V33.5015C77.9398 37.1945 60.5742 40.1703 39.1523 40.1703C17.7289 40.1703 0.364014 37.175 0.364014 33.5015ZM74.9093 46.539C66.8796 46.539 59.9476 51.2258 56.6953 58.0125C56.4664 58.4946 56.2566 58.9857 56.0664 59.4843C55.9101 59.8922 55.7601 60.3047 55.6296 60.7234V60.725C55.4992 61.1499 55.3827 61.5791 55.2804 62.0117C55.258 62.1086 55.2361 62.2057 55.2148 62.3031C55.1161 62.7367 55.0317 63.1734 54.9617 63.6125C54.8019 64.6428 54.7217 65.6839 54.7218 66.7265C54.7218 73.982 58.55 80.3406 64.2953 83.8984C64.6744 84.1328 65.0609 84.3547 65.4546 84.564L65.5265 84.6008C65.8812 84.7867 66.2419 84.9622 66.6085 85.1273L66.7874 85.2078C67.5703 85.5526 68.3776 85.8476 69.2093 86.0929C69.6363 86.218 70.0673 86.329 70.5015 86.4258L70.7179 86.4758C71.1372 86.5643 71.5614 86.6398 71.9906 86.7023L72.1718 86.7242C72.5432 86.7747 72.9177 86.8146 73.2953 86.8437L73.5882 86.8672C74.0257 86.8945 74.4648 86.914 74.9093 86.914C78.9312 86.9169 82.8619 85.7164 86.196 83.4672C87.2685 82.7421 88.2691 81.9162 89.1843 81.0008C91.4952 78.688 93.2123 75.8506 94.189 72.7304C94.5884 71.4474 94.858 70.1275 94.9937 68.7906C95.1209 67.5241 95.1287 66.2484 95.0171 64.9804C95.0117 64.9172 95.0085 64.8523 95.0015 64.7883C94.9406 64.1568 94.8501 63.5285 94.7304 62.9054C94.6332 62.3991 94.5167 61.8967 94.3812 61.3992C94.3526 61.2971 94.3231 61.195 94.2929 61.0929C94.1499 60.5971 93.9881 60.1069 93.8078 59.6234L93.7234 59.4117C93.5305 58.9113 93.3178 58.4187 93.0859 57.9351C93.0671 57.9002 93.0489 57.8648 93.0312 57.8289C92.7927 57.3438 92.535 56.8684 92.2585 56.4039L92.214 56.3289C91.9333 55.865 91.6341 55.4126 91.3171 54.9726L91.2132 54.8242C90.9074 54.4074 90.5859 54.0024 90.2492 53.6101C90.1888 53.5398 90.1276 53.47 90.0656 53.4008C89.7296 53.0169 89.3794 52.6466 89.0148 52.2898L88.8484 52.1336C88.4674 51.7675 88.0723 51.4165 87.664 51.0812L87.5679 51.0054C87.1476 50.6659 86.7139 50.3432 86.2679 50.0383C86.2471 50.0226 86.2263 50.0078 86.2054 49.9937L86.196 49.9875C85.7516 49.6894 85.2955 49.4089 84.8289 49.1468L84.6554 49.0461C84.1224 48.7532 83.5766 48.4845 83.0195 48.2406C82.5507 48.0338 82.0726 47.845 81.5851 47.6742C81.495 47.6429 81.4044 47.6125 81.3132 47.5828C80.8206 47.4171 80.3218 47.2704 79.8179 47.1429C79.7382 47.1234 79.6562 47.1078 79.5757 47.0883C79.0376 46.9588 78.4945 46.8514 77.9476 46.7664L77.9398 46.7648C76.9367 46.614 75.9237 46.5385 74.9093 46.539ZM67.7984 55.0656L86.5703 65.9023L67.7984 76.739V55.0656ZM0.364014 57.5281V78.8484C0.364014 82.5406 17.7289 85.5164 39.1523 85.5164C46.9492 85.5164 54.1023 85.0976 60.1601 84.4133C55.0992 80.1883 51.8781 73.8343 51.8781 66.7258C51.8807 65.7488 51.9443 64.7729 52.0687 63.8039C47.7682 64.0647 43.4607 64.1947 39.1523 64.1937C17.7289 64.1937 0.364014 61.2 0.364014 57.5281Z" fill="black"/>
</svg>
