<svg width="100" height="52" viewBox="0 0 100 52" fill="none" xmlns="http://www.w3.org/2000/svg">
<path d="M89.375 35.6458C88.7791 36.8125 87.9833 37.8625 87.0208 38.75C85.6711 39.9801 84.1135 40.9606 82.4208 41.6458C78.2232 43.1705 73.6192 43.1469 69.4375 41.5791C67.4479 40.8096 65.6343 39.646 64.1056 38.1581C62.5769 36.6703 61.3647 34.8888 60.5416 32.9208C60.3381 32.4393 60.1573 31.9485 60 31.45H90.9083C90.5746 32.9085 90.0594 34.3195 89.375 35.65V35.6458ZM39.4166 32.9208C38.594 34.8885 37.3824 36.6696 35.8545 38.1575C34.3265 39.6453 32.5138 40.8092 30.525 41.5791C26.342 43.1479 21.7363 43.1715 17.5375 41.6458C15.8447 40.9606 14.2872 39.9801 12.9375 38.75C11.9797 37.8597 11.1844 36.8092 10.5875 35.6458C9.89953 34.3198 9.38423 32.9111 9.05412 31.4541H39.9583C39.8027 31.9541 39.6222 32.443 39.4166 32.9208ZM99.8375 25.5958C99.7635 24.9298 99.6494 24.2689 99.4958 23.6166L59.3541 23.5833C59.7801 19.8747 61.4604 16.4229 64.1166 13.8C65.6291 12.3416 67.4083 11.1958 69.3666 10.4291C72.5108 9.07997 75.996 8.73896 79.3421 9.4531C82.6882 10.1672 85.7305 11.9014 88.05 14.4166L94.3875 8.20831C92.1403 5.78717 89.4127 3.86143 86.3791 2.55414C83.0254 1.14658 79.4157 0.451325 75.7791 0.512473C72.3474 0.496494 68.9449 1.14304 65.7583 2.41664C62.7092 3.63457 59.9299 5.44118 57.5791 7.73331C55.2325 10.0446 53.3574 12.7899 52.0583 15.8166C50.991 18.282 50.3351 20.9057 50.1166 23.5833H49.8541C49.6348 20.9041 48.9774 18.2789 47.9083 15.8125C46.6087 12.7872 44.7337 10.0433 42.3875 7.73331C40.0367 5.44118 37.2574 3.63457 34.2083 2.41664C27.5701 -0.173586 20.1927 -0.127376 13.5875 2.54581C10.5546 3.85605 7.82846 5.78464 5.58329 8.20831L11.9166 14.4166C14.3002 11.9986 17.34 10.3318 20.6604 9.62242C23.9808 8.91302 27.4364 9.19203 30.6 10.425C32.5583 11.1916 34.3416 12.3416 35.85 13.8C37.3833 15.3 38.6 17.1 39.4291 19.0833C40.0375 20.5166 40.4375 22.0333 40.6166 23.5833L0.470789 23.6166C0.156454 25.0241 -0.00144791 26.462 -4.48398e-05 27.9041C-0.0172897 30.9177 0.468551 33.913 1.43746 36.7666C2.38724 39.5371 3.92196 42.0708 5.93746 44.1958C8.13746 46.5291 10.8125 48.3625 13.7708 49.5833C17.0891 50.8994 20.6348 51.5465 24.2041 51.4875C27.6375 51.5083 31.0375 50.8625 34.2208 49.5833C37.2717 48.3646 40.0525 46.5565 42.4041 44.2625C45.9501 40.7702 48.3928 36.3137 49.4291 31.4458H50.5666C51.6091 36.3126 54.0508 40.7688 57.5916 44.2666C59.9437 46.5592 62.7244 48.3659 65.775 49.5833C68.9616 50.8569 72.3641 51.5035 75.7958 51.4875C79.3623 51.5454 82.9051 50.8983 86.2208 49.5833C89.1888 48.367 91.8625 46.5301 94.0625 44.1958C96.078 42.0708 97.6127 39.5371 98.5625 36.7666C99.5314 33.913 100.017 30.9177 100 27.9041C99.9886 27.1323 99.9344 26.3616 99.8375 25.5958Z" fill="black"/>
</svg>
